# xmcd
#
# Track frame offsets:
# 150
# 14201
# 26559
# 45417
# 60091
# 76160
# 91402
# 106194
# 121865
# 138060
# 156237
# 173421
# 188813
#
# Disc length: 2735 seconds
#
#
# Revision: 0
# Processed by: cddbd v1.5.2PL0 Copyright (c) Steve Scherf et al.
# Submitted via: FreeRIP 2.96 
#
DISCID=900aad0d
DTITLE=Rayito Colombiano - Ven, Ven
DYEAR=2008
DGENRE=Punk Rock
TTITLE0=El Bombom
TTITLE1=Tontos de Màs
TTITLE2=Quiero Volar
TTITLE3=Ven, Ven
TTITLE4=Florcita
TTITLE5=Chucupum
TTITLE6=1+1=2 Enamorados
TTITLE7=La Cumbia del Compache
TTITLE8=Los Animalitos
TTITLE9=Uno, dos , tres
TTITLE10=Perderas
TTITLE11=La Mula de Mi Compadre
TTITLE12=Perderas (Version Bachata)
EXTD=buen disco...\nsuperkaret@hotmail.com
EXTT0=
EXTT1=
EXTT2=
EXTT3=
EXTT4=
EXTT5=
EXTT6=
EXTT7=
EXTT8=
EXTT9=
EXTT10=
EXTT11=
EXTT12=
PLAYORDER=
